<svg width="16" height="17" viewBox="0 0 16 17" fill="none" xmlns="http://www.w3.org/2000/svg">
<path d="M0.89 0.976074H15.12C15.61 0.976074 16 1.36607 16 1.85607V16.0961C16 16.5761 15.61 16.9761 15.12 16.9761H11.04V10.7761H13.12L13.43 8.36607H11.04V6.82607C11.04 6.12607 11.24 5.64607 12.24 5.64607H13.52V3.48607C13.3 3.45607 12.54 3.39607 11.66 3.39607C9.81 3.39607 8.55 4.51607 8.55 6.58607V8.36607H6.46V10.7761H8.55V16.9761H0.89C0.65568 16.9761 0.430807 16.8837 0.264184 16.7189C0.0975614 16.5542 0.00263281 16.3304 0 16.0961V1.85607C0 1.36607 0.4 0.976074 0.89 0.976074Z" fill="black"/>
</svg>
