<svg width="16" height="17" viewBox="0 0 16 17" fill="none" xmlns="http://www.w3.org/2000/svg">
<path d="M4.64 0.976074H11.36C13.92 0.976074 16 3.05607 16 5.61607V12.3361C16 13.5667 15.5111 14.7469 14.641 15.6171C13.7708 16.4872 12.5906 16.9761 11.36 16.9761H4.64C2.08 16.9761 0 14.8961 0 12.3361V5.61607C0 4.38547 0.488856 3.20527 1.35902 2.3351C2.22919 1.46493 3.4094 0.976074 4.64 0.976074ZM4.48 2.57607C3.71618 2.57607 2.98364 2.8795 2.44353 3.41961C1.90343 3.95971 1.6 4.69225 1.6 5.45607V12.4961C1.6 14.0881 2.888 15.3761 4.48 15.3761H11.52C12.2838 15.3761 13.0164 15.0726 13.5565 14.5325C14.0966 13.9924 14.4 13.2599 14.4 12.4961V5.45607C14.4 3.86407 13.112 2.57607 11.52 2.57607H4.48ZM12.2 3.77607C12.4652 3.77607 12.7196 3.88143 12.9071 4.06897C13.0946 4.2565 13.2 4.51086 13.2 4.77607C13.2 5.04129 13.0946 5.29564 12.9071 5.48318C12.7196 5.67072 12.4652 5.77607 12.2 5.77607C11.9348 5.77607 11.6804 5.67072 11.4929 5.48318C11.3054 5.29564 11.2 5.04129 11.2 4.77607C11.2 4.51086 11.3054 4.2565 11.4929 4.06897C11.6804 3.88143 11.9348 3.77607 12.2 3.77607ZM8 4.97607C9.06087 4.97607 10.0783 5.3975 10.8284 6.14765C11.5786 6.89779 12 7.91521 12 8.97607C12 10.0369 11.5786 11.0544 10.8284 11.8045C10.0783 12.5546 9.06087 12.9761 8 12.9761C6.93913 12.9761 5.92172 12.5546 5.17157 11.8045C4.42143 11.0544 4 10.0369 4 8.97607C4 7.91521 4.42143 6.89779 5.17157 6.14765C5.92172 5.3975 6.93913 4.97607 8 4.97607ZM8 6.57607C7.36348 6.57607 6.75303 6.82893 6.30294 7.27902C5.85286 7.72911 5.6 8.33955 5.6 8.97607C5.6 9.61259 5.85286 10.223 6.30294 10.6731C6.75303 11.1232 7.36348 11.3761 8 11.3761C8.63652 11.3761 9.24697 11.1232 9.69706 10.6731C10.1471 10.223 10.4 9.61259 10.4 8.97607C10.4 8.33955 10.1471 7.72911 9.69706 7.27902C9.24697 6.82893 8.63652 6.57607 8 6.57607Z" fill="black"/>
</svg>
