<svg width="16" height="14" viewBox="0 0 16 14" fill="none" xmlns="http://www.w3.org/2000/svg">
<path d="M16 2.30381C15.4111 2.57149 14.7763 2.7474 14.1185 2.83153C14.7916 2.42618 15.3117 1.78373 15.5564 1.01126C14.9216 1.39367 14.218 1.66136 13.4761 1.81432C12.8719 1.15658 12.0229 0.77417 11.0593 0.77417C9.26195 0.77417 7.7935 2.24262 7.7935 4.05524C7.7935 4.31528 7.82409 4.56767 7.87763 4.80476C5.15488 4.6671 2.7304 3.35926 1.11663 1.37838C0.833652 1.86021 0.67304 2.42618 0.67304 3.02274C0.67304 4.16232 1.24665 5.17188 2.13384 5.74549C1.59082 5.74549 1.08604 5.59253 0.642448 5.36308V5.38602C0.642448 6.97685 1.77438 8.30763 3.27342 8.60591C2.79214 8.73762 2.28688 8.75594 1.79732 8.65945C2.00505 9.31144 2.41188 9.88194 2.96062 10.2908C3.50937 10.6996 4.17243 10.9261 4.8566 10.9386C3.69685 11.8567 2.25927 12.353 0.780115 12.3459C0.520077 12.3459 0.260038 12.3306 0 12.3C1.45315 13.2331 3.18164 13.7761 5.03251 13.7761C11.0593 13.7761 14.3709 8.77417 14.3709 4.43765C14.3709 4.29233 14.3709 4.15467 14.3633 4.00935C15.0057 3.55046 15.5564 2.9692 16 2.30381Z" fill="black"/>
</svg>
