<svg width="16" height="12" viewBox="0 0 16 12" fill="none" xmlns="http://www.w3.org/2000/svg">
<path d="M6.4 8.77612L10.552 6.37612L6.4 3.97612V8.77612ZM15.648 2.51212C15.752 2.88812 15.824 3.39212 15.872 4.03212C15.928 4.67212 15.952 5.22412 15.952 5.70412L16 6.37612C16 8.12812 15.872 9.41612 15.648 10.2401C15.448 10.9601 14.984 11.4241 14.264 11.6241C13.888 11.7281 13.2 11.8001 12.144 11.8481C11.104 11.9041 10.152 11.9281 9.272 11.9281L8 11.9761C4.648 11.9761 2.56 11.8481 1.736 11.6241C1.016 11.4241 0.552 10.9601 0.352 10.2401C0.248 9.86412 0.176 9.36012 0.128 8.72012C0.0720001 8.08012 0.048 7.52812 0.048 7.04812L0 6.37612C0 4.62412 0.128 3.33612 0.352 2.51212C0.552 1.79212 1.016 1.32812 1.736 1.12812C2.112 1.02412 2.8 0.952123 3.856 0.904123C4.896 0.848123 5.848 0.824123 6.728 0.824123L8 0.776123C11.352 0.776123 13.44 0.904123 14.264 1.12812C14.984 1.32812 15.448 1.79212 15.648 2.51212Z" fill="black"/>
</svg>
